STARTFONT 2.1
FONT -FontForge-Digital7-Book-I-Normal--77-740-75-75-P-324-ISO10646-1
SIZE 74 75 75
FONTBOUNDINGBOX 39 67 0 -8
COMMENT "Generated by fontforge, http://fontforge.sourceforge.net"
COMMENT "Created by Sizenko Alexander. (c) 2008 Style-7. All rights reserved. http://www.styleseven.com"
STARTPROPERTIES 39
FOUNDRY "FontForge"
FAMILY_NAME "Digital7"
WEIGHT_NAME "Book"
SLANT "I"
SETWIDTH_NAME "Normal"
ADD_STYLE_NAME ""
PIXEL_SIZE 77
POINT_SIZE 740
RESOLUTION_X 75
RESOLUTION_Y 75
SPACING "P"
AVERAGE_WIDTH 324
CHARSET_REGISTRY "ISO10646"
CHARSET_ENCODING "1"
FONTNAME_REGISTRY ""
CHARSET_COLLECTIONS "ISO10646-1"
FONT_NAME "Digital-7"
FACE_NAME "Digital-7"
COPYRIGHT "Created by Sizenko Alexander. (c) 2008 Style-7. All rights reserved. http://www.styleseven.com"
FONT_VERSION "1.020 April 07 2011"
FONT_ASCENT 62
FONT_DESCENT 15
UNDERLINE_POSITION -11
UNDERLINE_THICKNESS 5
X_HEIGHT 49
CAP_HEIGHT 49
RAW_ASCENT 800
RAW_DESCENT 200
NORM_SPACE 21
RELATIVE_WEIGHT 40
RELATIVE_SETWIDTH 50
SUPERSCRIPT_X 0
SUPERSCRIPT_Y 31
SUPERSCRIPT_SIZE 45
SUBSCRIPT_X 0
SUBSCRIPT_Y 10
SUBSCRIPT_SIZE 45
AVG_LOWERCASE_WIDTH 356
AVG_UPPERCASE_WIDTH 356
ENDPROPERTIES
CHARS 107
STARTCHAR space
ENCODING 32
SWIDTH 272 0
DWIDTH 21 0
BBX 1 1 0 0
BITMAP
00
ENDCHAR
STARTCHAR exclam
ENCODING 33
SWIDTH 163 0
DWIDTH 13 0
BBX 6 50 3 0
BITMAP
30
38
7C
7C
FC
FC
FC
FC
FC
FC
FC
FC
FC
FC
FC
FC
FC
FC
FC
FC
FC
7C
3C
1C
08
08
1C
7C
FC
FC
FC
FC
FC
FC
FC
FC
FC
FC
00
00
00
00
00
00
FC
FC
FC
FC
FC
FC
ENDCHAR
STARTCHAR quotedbl
ENCODING 34
SWIDTH 310 0
DWIDTH 25 0
BBX 17 14 4 36
BITMAP
FC1F80
FC1F80
FC1F80
FC1F80
FC1F80
FC1F80
FC1F80
FC1F80
FC1F80
FC1F80
FC1F80
FC1F80
780F00
300600
ENDCHAR
STARTCHAR numbersign
ENCODING 35
SWIDTH 490 0
DWIDTH 38 0
BBX 30 34 4 8
BITMAP
00600C00
00F01E00
01F83F00
01F83F00
01F83F00
01F83F00
01F83F00
00F01E00
3C678CF0
7E0FC1F8
FE1FE3FC
FE1FE3FC
7E0FC1F8
3C678CF0
00F01E00
01F83F00
01F83F00
01F83F00
01F83F00
3CF79EF0
7E6FCDF8
FE1FE3FC
FE1FE3FC
7E0FC1F8
3C0780F0
00600C00
01F83F00
01F83F00
01F83F00
01F83F00
01F83F00
01F83F00
00F01E00
00600C00
ENDCHAR
STARTCHAR dollar
ENCODING 36
SWIDTH 472 0
DWIDTH 37 0
BBX 30 67 3 -8
BITMAP
00010000
00018000
0003C000
0007E000
0007E000
0007E000
0007E000
00000000
00000000
1FFFFFF0
7FFFFFF8
7FFFFFFC
3FFFFFF8
87FFFFC0
F0000000
FC000000
FC07E000
FC07E000
FC07E000
FC07E000
FC07E000
FC07E000
FC07E000
FC07E000
FC07E000
FC07E000
FC07E000
FC07E000
FC07E000
F8000000
F0000000
E7FFFF00
4FFFFF80
1FFFFFC0
1FFFFFC0
0FFFFF88
07FFFF1C
0000003C
0000007C
0007E0FC
0007E0FC
0007E0FC
0007E0FC
0007E0FC
0007E0FC
0007E0FC
0007E0FC
0007E0FC
0007E0FC
0007E0FC
0007E0FC
000000FC
000000FC
07FFFEFC
3FFFFEFC
FFFFFF7C
FFFFFF7C
7FFFFF38
3FFFFFB0
00000000
00000000
0007E000
0007E000
0007E000
0007E000
0003C000
00018000
ENDCHAR
STARTCHAR percent
ENCODING 37
SWIDTH 545 0
DWIDTH 43 0
BBX 35 51 4 0
BITMAP
3FF4003800
7FE7003E00
FFE7807F00
FFEF807F00
1FCF80FE00
87DF80FE00
F01F81FC00
FC1F81FC00
FC1F83F800
FC1F83F800
FC0787F000
FDF187F000
F9FC0FE000
FBFF8FE000
F3FF9FC000
73FF1FC000
37FE3F8000
00003F8000
00003F0000
00003F0000
00003E0000
00003E0000
00003C0000
00003C0000
0000380000
0000000000
0003800000
0007800000
0007800000
000F800000
000F800000
001F800000
001F800000
003F800000
003F8FFD00
007F1FF9C0
007F3FF9E0
00FE3FFBE0
00FE07F3E0
01FC31F7E0
01FC3C07E0
03F83F07E0
03F83F07E0
07F03F07E0
07F03F01E0
0FE03F7C60
0FE03E7F00
1FC03EFFE0
1FC03CFFE0
0F801CFFC0
03800DFF80
ENDCHAR
STARTCHAR ampersand
ENCODING 38
SWIDTH 509 0
DWIDTH 39 0
BBX 33 54 3 -6
BITMAP
07FFFD0000
0FFFF9C000
1FFFFBC000
1FFFFBE000
07FFF3E000
11FFF7E000
1E0007E000
1F8007E000
1F8007E000
1F8007E000
1F8007E000
1F8007E000
1F8007E000
1F8007E000
1F8007E000
1F8007E000
1E0003E000
1C0000E000
0800004000
0000000000
07FFFF0000
0FFFFF8000
1FFFFFC000
5FFFFFC800
EFFFFF9C00
F7FFFF3C00
F800007C00
FC0000FC00
FC0000FC00
FC0000FC00
FC0000FC00
FC0000FC00
FC0000FC00
FC0000FC00
FC0000FC00
FC0000FC00
FC0000FC00
FC0000FC00
FC0000FC00
FC00007C00
FC00003C00
F000000000
87FFFFF800
3FFFFFFC00
FFFFFFFE00
7FFFFFFF00
7FFFFFFF80
1FFFFFFF00
0000000000
000000FC00
0000007C00
0000003C00
0000001C00
0000000800
ENDCHAR
STARTCHAR quotesingle
ENCODING 39
SWIDTH 163 0
DWIDTH 13 0
BBX 6 14 3 36
BITMAP
FC
FC
FC
FC
FC
FC
FC
FC
FC
FC
FC
FC
78
30
ENDCHAR
STARTCHAR parenleft
ENCODING 40
SWIDTH 318 0
DWIDTH 25 0
BBX 18 51 3 0
BITMAP
01FF00
03FF80
07FFC0
07FFC0
13FF80
39FF00
7C0000
FC0000
FC0000
FC0000
FC0000
FC0000
FC0000
FC0000
FC0000
FC0000
FC0000
FC0000
FC0000
FC0000
FC0000
F80000
F00000
E00000
400000
000000
400000
E00000
F00000
F80000
FC0000
FC0000
FC0000
FC0000
FC0000
FC0000
FC0000
FC0000
FC0000
FC0000
FC0000
FC0000
FC0000
FC0000
7C0000
3DFF00
1BFF80
07FFC0
07FFC0
03FF80
01FF00
ENDCHAR
STARTCHAR parenright
ENCODING 41
SWIDTH 318 0
DWIDTH 25 0
BBX 17 51 4 0
BITMAP
3FC000
7FE000
FFF000
FFF000
7FE400
3FCE00
001F00
001F80
001F80
001F80
001F80
001F80
001F80
001F80
001F80
001F80
001F80
001F80
001F80
001F80
001F80
000F80
000780
000380
000100
000000
000100
000380
000780
000F80
001F80
001F80
001F80
001F80
001F80
001F80
001F80
001F80
001F80
001F80
001F80
001F80
001F80
001F80
001F00
3FDE00
7FEC00
FFF000
FFF000
7FE000
3FC000
ENDCHAR
STARTCHAR asterisk
ENCODING 42
SWIDTH 390 0
DWIDTH 30 0
BBX 24 27 3 12
BITMAP
001800
003C00
007E00
007E00
007E00
007E00
787E1E
FE7E7F
7FFFFE
7FFFFE
7FFFFE
1FFFF8
0FFFF0
03FFC0
0FFFF0
1FFFF8
7FFFFE
7FFFFE
7FFFFE
FE7E7F
787E1E
007E00
007E00
007E00
007E00
003C00
001800
ENDCHAR
STARTCHAR plus
ENCODING 43
SWIDTH 400 0
DWIDTH 31 0
BBX 24 24 3 13
BITMAP
001800
003C00
007E00
007E00
007E00
007E00
007E00
007E00
007E00
3FFFFC
7FFFFE
FFFFFF
FFFFFF
7FFFFE
3FFFFC
007E00
007E00
007E00
007E00
007E00
007E00
007E00
003C00
001800
ENDCHAR
STARTCHAR comma
ENCODING 44
SWIDTH 163 0
DWIDTH 13 0
BBX 6 14 3 -8
BITMAP
FC
FC
FC
FC
FC
FC
FC
FC
FC
FC
FC
FC
78
30
ENDCHAR
STARTCHAR hyphen
ENCODING 45
SWIDTH 400 0
DWIDTH 31 0
BBX 23 6 4 22
BITMAP
3FFFF8
7FFFFC
FFFFFE
FFFFFE
7FFFFC
3FFFF8
ENDCHAR
STARTCHAR period
ENCODING 46
SWIDTH 163 0
DWIDTH 13 0
BBX 6 6 3 0
BITMAP
FC
FC
FC
FC
FC
FC
ENDCHAR
STARTCHAR slash
ENCODING 47
SWIDTH 472 0
DWIDTH 36 0
BBX 29 50 4 0
BITMAP
000001C0
000001F0
000003F8
000003F8
000007F0
000007F0
00000FE0
00000FE0
00001FC0
00001FC0
00003F80
00003F80
00007F00
00007F00
0000FE00
0000FE00
0001FC00
0001FC00
0001F800
0001F800
0001F000
0001F000
0001E000
0001E000
0001C000
00380000
00380000
00780000
00780000
00F80000
00F80000
01F80000
01F80000
03F80000
03F80000
07F00000
07F00000
0FE00000
0FE00000
1FC00000
1FC00000
3F800000
3F800000
7F000000
7F000000
FE000000
FE000000
FC000000
FC000000
38000000
ENDCHAR
STARTCHAR zero
ENCODING 48
SWIDTH 472 0
DWIDTH 37 0
BBX 29 51 4 0
BITMAP
3FFFFF40
7FFFFE70
FFFFFEF0
FFFFFEF8
3FFFFCF8
87FFFDF8
F00001F8
FC0001F8
FC0001F8
FC0001F8
FC0001F8
FC0001F8
FC0001F8
FC0001F8
FC0001F8
FC0001F8
FC0001F8
FC0001F8
FC0001F8
FC0001F8
FC0001F8
F80000F8
F0000078
E0000038
40000010
00000000
40000010
E0000038
F0000078
F80000F8
FC0001F8
FC0001F8
FC0001F8
FC0001F8
FC0001F8
FC0001F8
FC0001F8
FC0001F8
FC0001F8
FC0001F8
FC0001F8
FC0001F8
FC0001F8
FC0001F8
F00001F8
87FFFDF8
3FFFFCF8
FFFFFEF8
7FFFFEF0
7FFFFE70
1FFFFF40
ENDCHAR
STARTCHAR one
ENCODING 49
SWIDTH 163 0
DWIDTH 13 0
BBX 6 50 3 0
BITMAP
30
38
7C
7C
FC
FC
FC
FC
FC
FC
FC
FC
FC
FC
FC
FC
FC
FC
FC
FC
FC
7C
3C
1C
08
08
1C
3C
7C
FC
FC
FC
FC
FC
FC
FC
FC
FC
FC
FC
FC
FC
FC
FC
FC
FC
7C
7C
38
30
ENDCHAR
STARTCHAR two
ENCODING 50
SWIDTH 472 0
DWIDTH 37 0
BBX 29 51 4 0
BITMAP
3FFFFF40
7FFFFE70
FFFFFEF0
FFFFFEF8
3FFFFCF8
07FFFDF8
000001F8
000001F8
000001F8
000001F8
000001F8
000001F8
000001F8
000001F8
000001F8
000001F8
000001F8
000001F8
000001F8
000001F8
000001F8
000000F8
00000078
03FFFE38
07FFFF10
0FFFFF80
4FFFFF80
E7FFFF00
F3FFFE00
F8000000
FC000000
FC000000
FC000000
FC000000
FC000000
FC000000
FC000000
FC000000
FC000000
FC000000
FC000000
FC000000
FC000000
FC000000
F0000000
87FFFF00
3FFFFF80
FFFFFF80
7FFFFF80
7FFFFFC0
1FFFFFC0
ENDCHAR
STARTCHAR three
ENCODING 51
SWIDTH 472 0
DWIDTH 37 0
BBX 30 51 3 0
BITMAP
1FFFFFA0
7FFFFF38
7FFFFF78
FFFFFF7C
3FFFFE7C
07FFFEFC
000000FC
000000FC
000000FC
000000FC
000000FC
000000FC
000000FC
000000FC
000000FC
000000FC
000000FC
000000FC
000000FC
000000FC
000000FC
0000007C
0000003C
07FFFF1C
0FFFFF88
1FFFFFC0
1FFFFFC8
0FFFFF9C
07FFFF3C
0000007C
000000FC
000000FC
000000FC
000000FC
000000FC
000000FC
000000FC
000000FC
000000FC
000000FC
000000FC
000000FC
000000FC
000000FC
000000FC
07FFFEFC
3FFFFE7C
FFFFFF7C
7FFFFF78
7FFFFF38
1FFFFFA0
ENDCHAR
STARTCHAR four
ENCODING 52
SWIDTH 472 0
DWIDTH 37 0
BBX 29 50 4 0
BITMAP
00000060
00000070
000000F8
C00000F8
F80001F8
FC0001F8
FC0001F8
FC0001F8
FC0001F8
FC0001F8
FC0001F8
FC0001F8
FC0001F8
FC0001F8
FC0001F8
FC0001F8
FC0001F8
FC0001F8
FC0001F8
FC0001F8
FC0001F8
F80000F8
F3FFFE78
E7FFFF38
0FFFFF90
0FFFFF90
07FFFF38
03FFFE78
000000F8
000001F8
000001F8
000001F8
000001F8
000001F8
000001F8
000001F8
000001F8
000001F8
000001F8
000001F8
000001F8
000001F8
000001F8
000001F8
000001F8
000001F8
000000F8
000000F8
00000070
00000060
ENDCHAR
STARTCHAR five
ENCODING 53
SWIDTH 472 0
DWIDTH 37 0
BBX 29 51 4 0
BITMAP
3FFFFFC0
7FFFFFC0
FFFFFF80
FFFFFF80
3FFFFF80
87FFFF00
F0000000
FC000000
FC000000
FC000000
FC000000
FC000000
FC000000
FC000000
FC000000
FC000000
FC000000
FC000000
FC000000
FC000000
FC000000
F8000000
F0000000
E3FFFE00
47FFFF00
0FFFFF80
0FFFFF90
07FFFF38
03FFFE78
000000F8
000001F8
000001F8
000001F8
000001F8
000001F8
000001F8
000001F8
000001F8
000001F8
000001F8
000001F8
000001F8
000001F8
000001F8
000001F8
07FFFDF8
3FFFFCF8
FFFFFEF8
FFFFFEF0
7FFFFE70
3FFFFF40
ENDCHAR
STARTCHAR six
ENCODING 54
SWIDTH 472 0
DWIDTH 37 0
BBX 29 51 4 0
BITMAP
3FFFFFC0
7FFFFFC0
FFFFFF80
FFFFFF80
3FFFFF80
87FFFF00
F0000000
FC000000
FC000000
FC000000
FC000000
FC000000
FC000000
FC000000
FC000000
FC000000
FC000000
FC000000
FC000000
FC000000
FC000000
F8000000
F0000000
E3FFFE00
47FFFF00
0FFFFF80
4FFFFF90
E7FFFF38
F3FFFE78
F80000F8
FC0001F8
FC0001F8
FC0001F8
FC0001F8
FC0001F8
FC0001F8
FC0001F8
FC0001F8
FC0001F8
FC0001F8
FC0001F8
FC0001F8
FC0001F8
FC0001F8
F00001F8
87FFFDF8
3FFFFCF8
FFFFFEF8
7FFFFEF0
7FFFFE70
1FFFFF40
ENDCHAR
STARTCHAR seven
ENCODING 55
SWIDTH 472 0
DWIDTH 37 0
BBX 29 51 4 0
BITMAP
3FFFFF40
7FFFFE70
FFFFFEF0
FFFFFEF8
3FFFFCF8
87FFFDF8
F00001F8
FC0001F8
FC0001F8
FC0001F8
FC0001F8
FC0001F8
FC0001F8
FC0001F8
FC0001F8
FC0001F8
FC0001F8
FC0001F8
FC0001F8
FC0001F8
FC0001F8
F80000F8
F0000078
E0000038
40000010
00000000
00000010
00000038
00000078
000000F8
000001F8
000001F8
000001F8
000001F8
000001F8
000001F8
000001F8
000001F8
000001F8
000001F8
000001F8
000001F8
000001F8
000001F8
000001F8
000001F8
000001F8
000000F8
000000F8
00000070
00000060
ENDCHAR
STARTCHAR eight
ENCODING 56
SWIDTH 472 0
DWIDTH 37 0
BBX 29 51 4 0
BITMAP
3FFFFF40
7FFFFE70
FFFFFEF0
FFFFFEF8
3FFFFCF8
87FFFDF8
F00001F8
FC0001F8
FC0001F8
FC0001F8
FC0001F8
FC0001F8
FC0001F8
FC0001F8
FC0001F8
FC0001F8
FC0001F8
FC0001F8
FC0001F8
FC0001F8
FC0001F8
F80000F8
F0000078
E3FFFE38
47FFFF10
0FFFFF80
4FFFFF90
E7FFFF38
F3FFFE78
F80000F8
FC0001F8
FC0001F8
FC0001F8
FC0001F8
FC0001F8
FC0001F8
FC0001F8
FC0001F8
FC0001F8
FC0001F8
FC0001F8
FC0001F8
FC0001F8
FC0001F8
F00001F8
87FFFDF8
3FFFFCF8
FFFFFEF8
7FFFFEF0
7FFFFE70
1FFFFF40
ENDCHAR
STARTCHAR nine
ENCODING 57
SWIDTH 472 0
DWIDTH 37 0
BBX 29 51 4 0
BITMAP
3FFFFF40
7FFFFE70
FFFFFEF0
FFFFFEF8
3FFFFCF8
87FFFDF8
F00001F8
FC0001F8
FC0001F8
FC0001F8
FC0001F8
FC0001F8
FC0001F8
FC0001F8
FC0001F8
FC0001F8
FC0001F8
FC0001F8
FC0001F8
FC0001F8
FC0001F8
F80000F8
F0000078
E3FFFE38
47FFFF10
0FFFFF80
0FFFFF90
07FFFF38
03FFFE78
000000F8
000001F8
000001F8
000001F8
000001F8
000001F8
000001F8
000001F8
000001F8
000001F8
000001F8
000001F8
000001F8
000001F8
000001F8
000001F8
07FFFDF8
3FFFFCF8
FFFFFEF8
FFFFFEF0
7FFFFE70
3FFFFF40
ENDCHAR
STARTCHAR colon
ENCODING 58
SWIDTH 163 0
DWIDTH 13 0
BBX 6 28 3 11
BITMAP
FC
FC
FC
FC
FC
FC
00
00
00
00
00
00
00
00
00
00
00
00
00
00
00
00
FC
FC
FC
FC
FC
FC
ENDCHAR
STARTCHAR semicolon
ENCODING 59
SWIDTH 163 0
DWIDTH 13 0
BBX 6 47 3 -8
BITMAP
FC
FC
FC
FC
FC
FC
00
00
00
00
00
00
00
00
00
00
00
00
00
00
00
00
00
00
00
00
00
00
00
00
00
00
00
FC
FC
FC
FC
FC
FC
FC
FC
FC
FC
FC
FC
78
30
ENDCHAR
STARTCHAR less
ENCODING 60
SWIDTH 336 0
DWIDTH 26 0
BBX 18 29 4 11
BITMAP
000780
000F80
001FC0
003FC0
007F80
00FF00
01FE00
03FC00
07F800
0FF000
1FE000
3FC000
7F8000
FF0000
000000
FF0000
7F8000
3FC000
1FE000
0FF000
07F800
03FC00
01FE00
00FF00
007F80
003FC0
001FC0
000F80
000780
ENDCHAR
STARTCHAR equal
ENCODING 61
SWIDTH 400 0
DWIDTH 31 0
BBX 23 17 4 17
BITMAP
3FFFF8
7FFFFC
FFFFFE
FFFFFE
7FFFFC
3FFFF8
000000
000000
000000
000000
000000
3FFFF8
7FFFFC
FFFFFE
FFFFFE
7FFFFC
3FFFF8
ENDCHAR
STARTCHAR greater
ENCODING 62
SWIDTH 336 0
DWIDTH 26 0
BBX 18 29 4 11
BITMAP
780000
FC0000
FE0000
FF0000
7F8000
3FC000
1FE000
0FF000
07F800
03FC00
01FE00
00FF00
007F80
003FC0
000000
003FC0
007F80
00FF00
01FE00
03FC00
07F800
0FF000
1FE000
3FC000
7F8000
FF0000
FE0000
FC0000
780000
ENDCHAR
STARTCHAR question
ENCODING 63
SWIDTH 472 0
DWIDTH 37 0
BBX 29 51 4 0
BITMAP
3FFFFF40
7FFFFE70
FFFFFEF0
FFFFFEF8
3FFFFCF8
07FFFDF8
000001F8
000001F8
000001F8
000001F8
000001F8
000001F8
000001F8
000001F8
000001F8
000001F8
000001F8
000001F8
000001F8
000001F8
000001F8
000000F8
00000078
03FFFE38
07FFFF10
0FFFFF80
4FFFFF80
E7FFFF00
F3FFFE00
F8000000
FC000000
FC000000
FC000000
FC000000
FC000000
FC000000
FC000000
FC000000
FC000000
FC000000
00000000
00000000
00000000
00000000
00000000
FC000000
FC000000
FC000000
FC000000
FC000000
FC000000
ENDCHAR
STARTCHAR at
ENCODING 64
SWIDTH 472 0
DWIDTH 37 0
BBX 30 51 3 0
BITMAP
1FFFFFA0
7FFFFF38
7FFFFF78
FFFFFF7C
3FFFFE7C
87FFFEFC
F00000FC
FC0000FC
FC0000FC
FC0000FC
FC0000FC
FC0000FC
FC03FEFC
FC07FEFC
FC0FFEFC
FC0FFEFC
FC03FEFC
FC10FEFC
FC0E00FC
FC0FC0FC
FC0FC0FC
F80FC07C
F00F803C
E00F001C
400E0008
00040000
40040008
E00E001C
F00F003C
F80F807C
FC0FC0FC
FC0FC0FC
FC0FC0FC
FC0E00FC
FC08FEFC
FC03FF7C
FC0FFF7C
FC0FFF7C
FC07FFB8
FC03FFA0
FC000000
FC000000
FC000000
FC000000
F0000000
87FFFE00
3FFFFE00
FFFFFF00
7FFFFF00
7FFFFF00
1FFFFF80
ENDCHAR
STARTCHAR A
ENCODING 65
SWIDTH 472 0
DWIDTH 37 0
BBX 29 51 4 0
BITMAP
3FFFFF40
7FFFFE70
FFFFFEF0
FFFFFEF8
3FFFFCF8
87FFFDF8
F00001F8
FC0001F8
FC0001F8
FC0001F8
FC0001F8
FC0001F8
FC0001F8
FC0001F8
FC0001F8
FC0001F8
FC0001F8
FC0001F8
FC0001F8
FC0001F8
FC0001F8
F80000F8
F0000078
E3FFFE38
47FFFF10
0FFFFF80
4FFFFF90
E7FFFF38
F3FFFE78
F80000F8
FC0001F8
FC0001F8
FC0001F8
FC0001F8
FC0001F8
FC0001F8
FC0001F8
FC0001F8
FC0001F8
FC0001F8
FC0001F8
FC0001F8
FC0001F8
FC0001F8
FC0001F8
FC0001F8
FC0001F8
F80000F8
F80000F8
70000070
30000060
ENDCHAR
STARTCHAR B
ENCODING 66
SWIDTH 472 0
DWIDTH 37 0
BBX 29 51 4 0
BITMAP
FFFFFE00
FFFFFF00
FFFFFF80
FFFFFF80
3FFFFF40
87FFFEE0
F00001F0
FC0001F8
FC0001F8
FC0001F8
FC0001F8
FC0001F8
FC0001F8
FC0001F8
FC0001F8
FC0001F8
FC0001F8
FC0001F8
FC0001F8
FC0001F8
FC0001F8
F80000F8
F0000078
E3FFFE38
47FFFF10
0FFFFF80
4FFFFF90
E7FFFF38
F3FFFE78
F80000F8
FC0001F8
FC0001F8
FC0001F8
FC0001F8
FC0001F8
FC0001F8
FC0001F8
FC0001F8
FC0001F8
FC0001F8
FC0001F8
FC0001F8
FC0001F8
FC0001F8
F00001F0
87FFFFE0
3FFFFFC0
FFFFFF80
FFFFFF80
FFFFFF00
FFFFFE00
ENDCHAR
STARTCHAR C
ENCODING 67
SWIDTH 436 0
DWIDTH 34 0
BBX 27 51 3 0
BITMAP
1FFFFFE0
3FFFFFE0
7FFFFFC0
7FFFFFC0
3FFFFFC0
87FFFF80
F0000000
FC000000
FC000000
FC000000
FC000000
FC000000
FC000000
FC000000
FC000000
FC000000
FC000000
FC000000
FC000000
FC000000
FC000000
F8000000
F0000000
E0000000
40000000
00000000
40000000
E0000000
F0000000
F8000000
FC000000
FC000000
FC000000
FC000000
FC000000
FC000000
FC000000
FC000000
FC000000
FC000000
FC000000
FC000000
FC000000
FC000000
F0000000
87FFFF80
3FFFFF80
FFFFFFC0
7FFFFFC0
7FFFFFC0
1FFFFFE0
ENDCHAR
STARTCHAR D
ENCODING 68
SWIDTH 472 0
DWIDTH 37 0
BBX 29 51 4 0
BITMAP
FFFFFE00
FFFFFF00
FFFFFF80
FFFFFF80
3FFFFF40
87FFFEE0
F00001F0
FC0001F8
FC0001F8
FC0001F8
FC0001F8
FC0001F8
FC0001F8
FC0001F8
FC0001F8
FC0001F8
FC0001F8
FC0001F8
FC0001F8
FC0001F8
FC0001F8
F80000F8
F0000078
E0000038
40000010
00000000
40000010
E0000038
F0000078
F80000F8
FC0001F8
FC0001F8
FC0001F8
FC0001F8
FC0001F8
FC0001F8
FC0001F8
FC0001F8
FC0001F8
FC0001F8
FC0001F8
FC0001F8
FC0001F8
FC0001F8
F00001F0
87FFFFE0
3FFFFFC0
FFFFFF80
FFFFFF80
FFFFFF00
FFFFFE00
ENDCHAR
STARTCHAR E
ENCODING 69
SWIDTH 436 0
DWIDTH 34 0
BBX 27 51 3 0
BITMAP
1FFFFFE0
3FFFFFE0
7FFFFFC0
7FFFFFC0
3FFFFFC0
87FFFF80
F0000000
FC000000
FC000000
FC000000
FC000000
FC000000
FC000000
FC000000
FC000000
FC000000
FC000000
FC000000
FC000000
FC000000
FC000000
F8000000
F0000000
E3FFFF80
47FFFFC0
0FFFFFE0
4FFFFFE0
E7FFFFC0
F3FFFF80
F8000000
FC000000
FC000000
FC000000
FC000000
FC000000
FC000000
FC000000
FC000000
FC000000
FC000000
FC000000
FC000000
FC000000
FC000000
F0000000
87FFFF80
3FFFFF80
FFFFFFC0
7FFFFFC0
7FFFFFC0
1FFFFFE0
ENDCHAR
STARTCHAR F
ENCODING 70
SWIDTH 436 0
DWIDTH 34 0
BBX 27 51 3 0
BITMAP
1FFFFFE0
3FFFFFE0
7FFFFFC0
7FFFFFC0
3FFFFFC0
87FFFF80
F0000000
FC000000
FC000000
FC000000
FC000000
FC000000
FC000000
FC000000
FC000000
FC000000
FC000000
FC000000
FC000000
FC000000
FC000000
F8000000
F0000000
E3FFFF80
47FFFFC0
0FFFFFE0
4FFFFFE0
E7FFFFC0
F3FFFF80
F8000000
FC000000
FC000000
FC000000
FC000000
FC000000
FC000000
FC000000
FC000000
FC000000
FC000000
FC000000
FC000000
FC000000
FC000000
FC000000
FC000000
FC000000
F8000000
F8000000
70000000
30000000
ENDCHAR
STARTCHAR G
ENCODING 71
SWIDTH 472 0
DWIDTH 37 0
BBX 29 51 4 0
BITMAP
3FFFFFC0
7FFFFFC0
FFFFFF80
FFFFFF80
3FFFFF80
87FFFF00
F0000000
FC000000
FC000000
FC000000
FC000000
FC000000
FC000000
FC000000
FC000000
FC000000
FC000000
FC000000
FC000000
FC000000
FC000000
F8000000
F0000000
E000FE00
4001FF00
0003FF80
4003FF90
E001FF38
F000FE78
F80000F8
FC0001F8
FC0001F8
FC0001F8
FC0001F8
FC0001F8
FC0001F8
FC0001F8
FC0001F8
FC0001F8
FC0001F8
FC0001F8
FC0001F8
FC0001F8
FC0001F8
F00001F8
87FFFDF8
3FFFFCF8
FFFFFEF8
7FFFFEF0
7FFFFE70
1FFFFF40
ENDCHAR
STARTCHAR H
ENCODING 72
SWIDTH 472 0
DWIDTH 37 0
BBX 29 50 4 0
BITMAP
10000060
70000070
780000F8
F80000F8
F80001F8
FC0001F8
FC0001F8
FC0001F8
FC0001F8
FC0001F8
FC0001F8
FC0001F8
FC0001F8
FC0001F8
FC0001F8
FC0001F8
FC0001F8
FC0001F8
FC0001F8
FC0001F8
FC0001F8
F80000F8
F3FFFE78
E7FFFF38
4FFFFF90
4FFFFF90
E7FFFF38
F3FFFE78
F80000F8
FC0001F8
FC0001F8
FC0001F8
FC0001F8
FC0001F8
FC0001F8
FC0001F8
FC0001F8
FC0001F8
FC0001F8
FC0001F8
FC0001F8
FC0001F8
FC0001F8
FC0001F8
FC0001F8
FC0001F8
F80000F8
F80000F8
70000070
30000060
ENDCHAR
STARTCHAR I
ENCODING 73
SWIDTH 163 0
DWIDTH 13 0
BBX 6 49 3 1
BITMAP
30
38
7C
7C
FC
FC
FC
FC
FC
FC
FC
FC
FC
FC
FC
FC
FC
FC
FC
FC
FC
7C
3C
1C
08
1C
3C
7C
FC
FC
FC
FC
FC
FC
FC
FC
FC
FC
FC
FC
FC
FC
FC
FC
FC
7C
7C
38
30
ENDCHAR
STARTCHAR J
ENCODING 74
SWIDTH 472 0
DWIDTH 37 0
BBX 29 50 4 0
BITMAP
00000060
00000070
000000F8
000000F8
000001F8
000001F8
000001F8
000001F8
000001F8
000001F8
000001F8
000001F8
000001F8
000001F8
000001F8
000001F8
000001F8
000001F8
000001F8
000001F8
000001F8
000000F8
00000078
00000038
00000010
40000010
E0000038
F0000078
F80000F8
FC0001F8
FC0001F8
FC0001F8
FC0001F8
FC0001F8
FC0001F8
FC0001F8
FC0001F8
FC0001F8
FC0001F8
FC0001F8
FC0001F8
FC0001F8
FC0001F8
F00001F8
87FFFDF8
3FFFFCF8
FFFFFEF8
7FFFFEF0
7FFFFE70
1FFFFF40
ENDCHAR
STARTCHAR K
ENCODING 75
SWIDTH 472 0
DWIDTH 37 0
BBX 29 50 4 0
BITMAP
300003C0
700007F0
F8000FF8
F8001FF0
FC003FE0
FC007FC0
FC00FF80
FC01FF00
FC03FE00
FC07FC00
FC0FF800
FC1FF000
FC3FE000
FC7FC000
FCFF8000
FDFF0000
FDFE0000
FFFC0000
FFF80000
FFF00000
FFE00000
F8000000
F3FFFE00
E7FFFF00
4FFFFF80
4FFFFF90
E7FFFF38
F3FFFE78
F80000F8
FC0001F8
FC0001F8
FC0001F8
FC0001F8
FC0001F8
FC0001F8
FC0001F8
FC0001F8
FC0001F8
FC0001F8
FC0001F8
FC0001F8
FC0001F8
FC0001F8
FC0001F8
FC0001F8
FC0001F8
F80000F8
F80000F8
70000070
30000060
ENDCHAR
STARTCHAR L
ENCODING 76
SWIDTH 472 0
DWIDTH 36 0
BBX 30 50 3 0
BITMAP
30000000
70000000
F8000000
F8000000
FC000000
FC000000
FC000000
FC000000
FC000000
FC000000
FC000000
FC000000
FC000000
FC000000
FC000000
FC000000
FC000000
FC000000
FC000000
FC000000
FC000000
F8000000
F0000000
E0000000
40000000
40000000
E0000000
F0000000
F8000000
FC000000
FC000000
FC000000
FC000000
FC000000
FC000000
FC000000
FC000000
FC000000
FC000000
FC000000
FC000000
FC000000
FC000000
FC000000
FDFFFF80
F9FFFFF0
FBFFFFFC
7BFFFFF8
73FFFFF8
17FFFFF0
ENDCHAR
STARTCHAR M
ENCODING 77
SWIDTH 472 0
DWIDTH 38 0
BBX 30 51 4 0
BITMAP
3FFFFFA0
7FFFFF38
FFFFFF78
FFFFFF7C
3FFFFE7C
87FFFEFC
F00000FC
FC0000FC
FC0FC0FC
FC0FC0FC
FC0FC0FC
FC0FC0FC
FC0FC0FC
FC0FC0FC
FC0FC0FC
FC0FC0FC
FC0FC0FC
FC0FC0FC
FC0FC0FC
FC0FC0FC
FC0FC0FC
F80FC07C
F00FC03C
E00FC01C
40078008
00030000
40000008
E000001C
F000003C
F800007C
FC0000FC
FC0000FC
FC0000FC
FC0000FC
FC0000FC
FC0000FC
FC0000FC
FC0000FC
FC0000FC
FC0000FC
FC0000FC
FC0000FC
FC0000FC
FC0000FC
FC0000FC
FC0000FC
FC0000FC
F800007C
F800007C
70000038
30000030
ENDCHAR
STARTCHAR N
ENCODING 78
SWIDTH 472 0
DWIDTH 37 0
BBX 29 50 4 0
BITMAP
30000060
70000070
F80000F8
F80000F8
FC0001F8
FC0001F8
FFE001F8
FFF001F8
FFF801F8
FFFC01F8
FDFE01F8
FCFF01F8
FC7F81F8
FC3FC1F8
FC1FE1F8
FC0FF1F8
FC07F9F8
FC03FDF8
FC01FDF8
FC00FDF8
FC007DF8
F80000F8
F0000078
E0000038
40000010
40000010
E0000038
F0000078
F80000F8
FC0001F8
FC0001F8
FC0001F8
FC0001F8
FC0001F8
FC0001F8
FC0001F8
FC0001F8
FC0001F8
FC0001F8
FC0001F8
FC0001F8
FC0001F8
FC0001F8
FC0001F8
FC0001F8
FC0001F8
F80000F8
F80000F8
70000070
30000060
ENDCHAR
STARTCHAR O
ENCODING 79
SWIDTH 472 0
DWIDTH 37 0
BBX 29 51 4 0
BITMAP
03FFFC00
07FFFE00
0FFFFF00
0FFFFF00
17FFFE40
3BFFFCE0
7C0001F0
FC0001F8
FC0001F8
FC0001F8
FC0001F8
FC0001F8
FC0001F8
FC0001F8
FC0001F8
FC0001F8
FC0001F8
FC0001F8
FC0001F8
FC0001F8
FC0001F8
F80000F8
F0000078
E0000038
40000010
00000000
40000010
E0000038
F0000078
F80000F8
FC0001F8
FC0001F8
FC0001F8
FC0001F8
FC0001F8
FC0001F8
FC0001F8
FC0001F8
FC0001F8
FC0001F8
FC0001F8
FC0001F8
FC0001F8
FC0001F8
7C0001F0
3FFFFDE0
1FFFFEC0
0FFFFF00
0FFFFF00
07FFFE00
03FFFC00
ENDCHAR
STARTCHAR P
ENCODING 80
SWIDTH 472 0
DWIDTH 37 0
BBX 29 51 4 0
BITMAP
FFFFFE00
FFFFFF00
FFFFFF80
FFFFFF80
3FFFFF40
87FFFEE0
F00001F0
FC0001F8
FC0001F8
FC0001F8
FC0001F8
FC0001F8
FC0001F8
FC0001F8
FC0001F8
FC0001F8
FC0001F8
FC0001F8
FC0001F8
FC0001F8
FC0001F8
F80000F8
F0000078
E3FFFE38
47FFFF10
0FFFFF80
4FFFFF80
E7FFFF00
F3FFFE00
F8000000
FC000000
FC000000
FC000000
FC000000
FC000000
FC000000
FC000000
FC000000
FC000000
FC000000
FC000000
FC000000
FC000000
FC000000
FC000000
FC000000
FC000000
F8000000
F8000000
70000000
30000000
ENDCHAR
STARTCHAR Q
ENCODING 81
SWIDTH 481 0
DWIDTH 37 0
BBX 30 52 4 -1
BITMAP
3FFFFF40
7FFFFE70
FFFFFEF0
FFFFFEF8
3FFFFCF8
87FFFDF8
F00001F8
FC0001F8
FC0001F8
FC0001F8
FC0001F8
FC0001F8
FC0001F8
FC0001F8
FC0001F8
FC0001F8
FC0001F8
FC0001F8
FC0001F8
FC0001F8
FC0001F8
F80000F8
F0000078
E0000038
40000010
00000000
40000010
E0000038
F0000078
F80000F8
FC0001F8
FC0001F8
FC0001F8
FC0001F8
FC0001F8
FC0001F8
FC0001F8
FC0001F8
FC0001F8
FC00F9F8
FC00FCF8
FC00FE38
FC00FF18
FC007F88
F0003FC0
87FFDFE0
3FFFEFF0
FFFFF7F8
7FFFFBFC
7FFFF9FC
1FFFFCFC
0000007C
ENDCHAR
STARTCHAR R
ENCODING 82
SWIDTH 472 0
DWIDTH 37 0
BBX 29 51 4 0
BITMAP
3FFFFF40
7FFFFE70
FFFFFEF0
FFFFFEF8
3FFFFCF8
87FFFDF8
F00001F8
FC0001F8
FC0001F8
FC0001F8
FC0001F8
FC0001F8
FC0001F8
FC0001F8
FC0001F8
FC0001F8
FC0001F8
FC0001F8
FC0001F8
FC0001F8
FC0001F8
F80000F8
F0000078
E3FFFE38
47FFFF10
0FFFFF80
4FFFFF80
E7FFFF00
F3FFFE00
F8000000
FFE00000
FFF00000
FFF80000
FFFC0000
FFFE0000
FDFF0000
FCFF8000
FC7FC000
FC3FE000
FC1FF000
FC0FF800
FC07FC00
FC03FE00
FC01FF00
FC00FF80
FC007FC0
FC003FE0
F8001FF0
F8000FF8
700007F0
300003C0
ENDCHAR
STARTCHAR S
ENCODING 83
SWIDTH 472 0
DWIDTH 37 0
BBX 29 51 4 0
BITMAP
3FFFFFE0
7FFFFFF0
FFFFFFF8
FFFFFFF8
3FFFFFE0
87FFFF00
F0000000
FC000000
FC000000
FC000000
FC000000
FC000000
FC000000
FC000000
FC000000
FC000000
FC000000
FC000000
FC000000
FC000000
FC000000
F8000000
F0000000
E3FFFE00
47FFFF00
0FFFFF80
0FFFFF90
07FFFF38
03FFFE78
000000F8
000001F8
000001F8
000001F8
000001F8
000001F8
000001F8
000001F8
000001F8
000001F8
000001F8
000001F8
000001F8
000001F8
000001F8
000001F8
07FFFDF8
3FFFFCF8
FFFFFEF8
FFFFFEF0
7FFFFE70
3FFFFF40
ENDCHAR
STARTCHAR T
ENCODING 84
SWIDTH 471 0
DWIDTH 36 0
BBX 29 51 4 0
BITMAP
3FFFFFE0
7FFFFFF0
FFFFFFF0
FFFFFFF8
7FFFFFE0
0FFFFF00
00000000
00000000
001F8000
001F8000
001F8000
001F8000
001F8000
001F8000
001F8000
001F8000
001F8000
001F8000
001F8000
001F8000
001F8000
001F8000
001F8000
000F0000
00060000
00000000
00000000
00060000
000F0000
001F8000
001F8000
001F8000
001F8000
001F8000
001F8000
001F8000
001F8000
001F8000
001F8000
001F8000
001F8000
001F8000
001F8000
001F8000
001F8000
001F8000
001F8000
000F8000
000F8000
00070000
00060000
ENDCHAR
STARTCHAR U
ENCODING 85
SWIDTH 472 0
DWIDTH 37 0
BBX 29 50 4 0
BITMAP
10000060
70000070
780000F8
F80000F8
F80001F8
FC0001F8
FC0001F8
FC0001F8
FC0001F8
FC0001F8
FC0001F8
FC0001F8
FC0001F8
FC0001F8
FC0001F8
FC0001F8
FC0001F8
FC0001F8
FC0001F8
FC0001F8
FC0001F8
F80000F8
F0000078
E0000038
40000010
40000010
E0000038
F0000078
F80000F8
FC0001F8
FC0001F8
FC0001F8
FC0001F8
FC0001F8
FC0001F8
FC0001F8
FC0001F8
FC0001F8
FC0001F8
FC0001F8
FC0001F8
FC0001F8
FC0001F8
F00001F8
87FFFDF8
3FFFFCF8
FFFFFEF8
7FFFFEF0
7FFFFE70
1FFFFF40
ENDCHAR
STARTCHAR V
ENCODING 86
SWIDTH 472 0
DWIDTH 37 0
BBX 29 50 4 0
BITMAP
30000060
70000070
F80000F8
F80000F8
FC0001F8
FC0001F8
FC0001F8
FC0001F8
FC0001F8
FC0001F8
FC0001F8
FC0001F8
FC0001F8
FC0001F8
FC0001F8
FC0001F8
FC0001F8
FC0001F8
FC0001F8
FC0001F8
FC0001F8
F80000F8
F0000078
E0000038
40000010
00000000
40000010
E0000038
F0000078
F80000F8
FC0001F8
FE0003F8
7E0003F0
7F0007F0
3F800FE0
1FC01FC0
0FC01F80
0FE03F80
07F07F00
03F07E00
01F8FC00
01FDFC00
00FDF800
007DF000
003DE000
003DE000
001DC000
000D8000
00050000
00050000
ENDCHAR
STARTCHAR W
ENCODING 87
SWIDTH 472 0
DWIDTH 38 0
BBX 30 50 4 0
BITMAP
30000030
70000038
F800007C
F800007C
FC0000FC
FC0000FC
FC0000FC
FC0000FC
FC0000FC
FC0000FC
FC0000FC
FC0000FC
FC0000FC
FC0000FC
FC0000FC
FC0000FC
FC0000FC
FC0000FC
FC0000FC
FC0000FC
FC0000FC
F800007C
F000003C
E000001C
40000008
40078008
E00FC01C
F00FC03C
F80FC07C
FC0FC0FC
FC0FC0FC
FC0FC0FC
FC0FC0FC
FC0FC0FC
FC0FC0FC
FC0FC0FC
FC0FC0FC
FC0FC0FC
FC0FC0FC
FC0FC0FC
FC0FC0FC
FC0FC0FC
FC0FC0FC
F00000FC
87FFFEFC
3FFFFE7C
FFFFFF7C
FFFFFF78
7FFFFF38
3FFFFFA0
ENDCHAR
STARTCHAR X
ENCODING 88
SWIDTH 472 0
DWIDTH 36 0
BBX 30 50 3 0
BITMAP
1C0000E0
7C0000F8
FE0001FC
FE0001FC
7F0003F8
7F0003F8
3F8007F0
3F8007F0
1FC00FE0
1FC00FE0
0FE01FC0
0FE01FC0
07F03F80
07F03F80
03F87F00
03F87F00
01FCFE00
01FCFE00
00FCFC00
00FCFC00
007CF800
007CF800
003CF000
003CF000
001CE000
001CE000
003CF000
003CF000
007CF800
007CF800
00FCFC00
00FCFC00
01FCFE00
01FCFE00
03F87F00
03F87F00
07F03F80
07F03F80
0FE01FC0
0FE01FC0
1FC00FE0
1FC00FE0
3F8007F0
3F8007F0
7F0003F8
7F0003F8
FE0001FC
FE0001FC
7C0000F8
1C0000E0
ENDCHAR
STARTCHAR Y
ENCODING 89
SWIDTH 472 0
DWIDTH 37 0
BBX 29 50 4 0
BITMAP
00000060
00000070
000000F8
E00000F8
FC0001F8
FC0001F8
FC0001F8
FC0001F8
FC0001F8
FC0001F8
FC0001F8
FC0001F8
FC0001F8
FC0001F8
FC0001F8
FC0001F8
FC0001F8
FC0001F8
FC0001F8
FC0001F8
F80001F8
F00000F8
E3FFFE78
47FFFF38
0FFFFF90
0FFFFF90
07FFFF38
03FFFE78
000000F8
000001F8
000001F8
000001F8
000001F8
000001F8
000001F8
000001F8
000001F8
000001F8
000001F8
000001F8
000001F8
000001F8
000001F8
000001F8
07FFFDF8
3FFFFCF8
FFFFFEF8
FFFFFEF0
7FFFFE70
3FFFFF40
ENDCHAR
STARTCHAR Z
ENCODING 90
SWIDTH 472 0
DWIDTH 36 0
BBX 29 51 4 0
BITMAP
3FFFFDC0
7FFFF9F0
FFFFFBF8
FFFFF3F8
7FFFF7F0
0FFFE7F0
00000FE0
00000FE0
00001FC0
00001FC0
00001F80
00003F80
00003F00
00007F00
00007E00
0000FE00
0000FC00
0001FC00
0001F800
0001F800
0003F000
0003F000
0003E000
0003E000
0003C000
00000000
001E0000
003E0000
003E0000
007E0000
007E0000
00FE0000
00FC0000
01FC0000
01F80000
03F80000
03F00000
07F00000
0FE00000
0FE00000
1FC00000
1FC00000
3F800000
3F800000
7F000000
7F7FFF00
FE7FFF80
FEFFFF80
FCFFFF80
FDFFFFC0
39FFFFC0
ENDCHAR
STARTCHAR bracketleft
ENCODING 91
SWIDTH 281 0
DWIDTH 22 0
BBX 15 51 3 0
BITMAP
1FFC
3FFE
7FFC
7FF8
3FF0
87E0
F000
FC00
FC00
FC00
FC00
FC00
FC00
FC00
FC00
FC00
FC00
FC00
FC00
FC00
FC00
F800
F000
E000
4000
0000
4000
E000
F000
F800
FC00
FC00
FC00
FC00
FC00
FC00
FC00
FC00
FC00
FC00
FC00
FC00
FC00
FC00
F000
87E0
3FF0
7FF8
7FFC
3FFE
1FFC
ENDCHAR
STARTCHAR backslash
ENCODING 92
SWIDTH 470 0
DWIDTH 36 0
BBX 29 50 4 0
BITMAP
38000000
FC000000
FC000000
FE000000
FE000000
7F000000
7F000000
3F800000
3F800000
1FC00000
1FC00000
0FE00000
0FE00000
07F00000
07F00000
03F80000
03F80000
01F80000
01F80000
00F80000
00F80000
00780000
00780000
00380000
00380000
0001C000
0001C000
0001E000
0001E000
0001F000
0001F000
0001F800
0001F800
0001FC00
0000FC00
0000FE00
00007E00
00007F00
00007F00
00003F80
00003F80
00001FC0
00001FC0
00000FE0
00000FE0
000007F0
000007F0
000003F8
000003F0
000001C0
ENDCHAR
STARTCHAR bracketright
ENCODING 93
SWIDTH 281 0
DWIDTH 22 0
BBX 15 50 3 0
BITMAP
7FD8
FF9C
7FBE
3F3E
1F7E
0F7E
007E
007E
007E
007E
007E
007E
007E
007E
007E
007E
007E
007E
007E
007E
007E
003E
001E
000E
0004
0004
000E
001E
003E
007E
007E
007E
007E
007E
007E
007E
007E
007E
007E
007E
007E
007E
007E
007E
0F7E
1F7E
3F3E
7FBE
FF9C
7FD8
ENDCHAR
STARTCHAR asciicircum
ENCODING 94
SWIDTH 471 0
DWIDTH 36 0
BBX 30 18 3 32
BITMAP
00030000
00068000
000CC000
001CF000
003CF800
007CFC00
00FCFE00
01FCFF00
03F87F80
07F03FC0
1FE01FE0
3FC00FF0
7F8007F8
FF0003FC
FE0001FC
FC0000FC
78000078
10000010
ENDCHAR
STARTCHAR underscore
ENCODING 95
SWIDTH 471 0
DWIDTH 36 0
BBX 29 6 4 0
BITMAP
0FFFFF80
7FFFFFE0
FFFFFFF8
FFFFFFF0
7FFFFFF0
3FFFFFE0
ENDCHAR
STARTCHAR grave
ENCODING 96
SWIDTH 254 0
DWIDTH 20 0
BBX 12 13 4 39
BITMAP
E000
F000
F800
FC00
7E00
3F00
1F80
0FC0
07E0
03F0
01F0
00F0
0060
ENDCHAR
STARTCHAR a
ENCODING 97
SWIDTH 472 0
DWIDTH 37 0
BBX 29 51 4 0
BITMAP
3FFFFF40
7FFFFE70
FFFFFEF0
FFFFFEF8
3FFFFCF8
87FFFDF8
F00001F8
FC0001F8
FC0001F8
FC0001F8
FC0001F8
FC0001F8
FC0001F8
FC0001F8
FC0001F8
FC0001F8
FC0001F8
FC0001F8
FC0001F8
FC0001F8
FC0001F8
F80000F8
F0000078
E3FFFE38
47FFFF10
0FFFFF80
4FFFFF90
E7FFFF38
F3FFFE78
F80000F8
FC0001F8
FC0001F8
FC0001F8
FC0001F8
FC0001F8
FC0001F8
FC0001F8
FC0001F8
FC0001F8
FC0001F8
FC0001F8
FC0001F8
FC0001F8
FC0001F8
FC0001F8
FC0001F8
FC0001F8
F80000F8
F80000F8
70000070
30000060
ENDCHAR
STARTCHAR b
ENCODING 98
SWIDTH 472 0
DWIDTH 37 0
BBX 29 51 4 0
BITMAP
FFFFFE00
FFFFFF00
FFFFFF80
FFFFFF80
3FFFFF40
87FFFEE0
F00001F0
FC0001F8
FC0001F8
FC0001F8
FC0001F8
FC0001F8
FC0001F8
FC0001F8
FC0001F8
FC0001F8
FC0001F8
FC0001F8
FC0001F8
FC0001F8
FC0001F8
F80000F8
F0000078
E3FFFE38
47FFFF10
0FFFFF80
4FFFFF90
E7FFFF38
F3FFFE78
F80000F8
FC0001F8
FC0001F8
FC0001F8
FC0001F8
FC0001F8
FC0001F8
FC0001F8
FC0001F8
FC0001F8
FC0001F8
FC0001F8
FC0001F8
FC0001F8
FC0001F8
F00001F0
87FFFFE0
3FFFFFC0
FFFFFF80
FFFFFF80
FFFFFF00
FFFFFE00
ENDCHAR
STARTCHAR c
ENCODING 99
SWIDTH 436 0
DWIDTH 34 0
BBX 27 51 3 0
BITMAP
1FFFFFE0
3FFFFFE0
7FFFFFC0
7FFFFFC0
3FFFFFC0
87FFFF80
F0000000
FC000000
FC000000
FC000000
FC000000
FC000000
FC000000
FC000000
FC000000
FC000000
FC000000
FC000000
FC000000
FC000000
FC000000
F8000000
F0000000
E0000000
40000000
00000000
40000000
E0000000
F0000000
F8000000
FC000000
FC000000
FC000000
FC000000
FC000000
FC000000
FC000000
FC000000
FC000000
FC000000
FC000000
FC000000
FC000000
FC000000
F0000000
87FFFF80
3FFFFF80
FFFFFFC0
7FFFFFC0
7FFFFFC0
1FFFFFE0
ENDCHAR
STARTCHAR d
ENCODING 100
SWIDTH 472 0
DWIDTH 37 0
BBX 29 51 4 0
BITMAP
FFFFFE00
FFFFFF00
FFFFFF80
FFFFFF80
3FFFFF40
87FFFEE0
F00001F0
FC0001F8
FC0001F8
FC0001F8
FC0001F8
FC0001F8
FC0001F8
FC0001F8
FC0001F8
FC0001F8
FC0001F8
FC0001F8
FC0001F8
FC0001F8
FC0001F8
F80000F8
F0000078
E0000038
40000010
00000000
40000010
E0000038
F0000078
F80000F8
FC0001F8
FC0001F8
FC0001F8
FC0001F8
FC0001F8
FC0001F8
FC0001F8
FC0001F8
FC0001F8
FC0001F8
FC0001F8
FC0001F8
FC0001F8
FC0001F8
F00001F0
87FFFFE0
3FFFFFC0
FFFFFF80
FFFFFF80
FFFFFF00
FFFFFE00
ENDCHAR
STARTCHAR e
ENCODING 101
SWIDTH 436 0
DWIDTH 34 0
BBX 27 51 3 0
BITMAP
1FFFFFE0
3FFFFFE0
7FFFFFC0
7FFFFFC0
3FFFFFC0
87FFFF80
F0000000
FC000000
FC000000
FC000000
FC000000
FC000000
FC000000
FC000000
FC000000
FC000000
FC000000
FC000000
FC000000
FC000000
FC000000
F8000000
F0000000
E3FFFF80
47FFFFC0
0FFFFFE0
4FFFFFE0
E7FFFFC0
F3FFFF80
F8000000
FC000000
FC000000
FC000000
FC000000
FC000000
FC000000
FC000000
FC000000
FC000000
FC000000
FC000000
FC000000
FC000000
FC000000
F0000000
87FFFF80
3FFFFF80
FFFFFFC0
7FFFFFC0
7FFFFFC0
1FFFFFE0
ENDCHAR
STARTCHAR f
ENCODING 102
SWIDTH 436 0
DWIDTH 34 0
BBX 27 51 3 0
BITMAP
1FFFFFE0
3FFFFFE0
7FFFFFC0
7FFFFFC0
3FFFFFC0
87FFFF80
F0000000
FC000000
FC000000
FC000000
FC000000
FC000000
FC000000
FC000000
FC000000
FC000000
FC000000
FC000000
FC000000
FC000000
FC000000
F8000000
F0000000
E3FFFF80
47FFFFC0
0FFFFFE0
4FFFFFE0
E7FFFFC0
F3FFFF80
F8000000
FC000000
FC000000
FC000000
FC000000
FC000000
FC000000
FC000000
FC000000
FC000000
FC000000
FC000000
FC000000
FC000000
FC000000
FC000000
FC000000
FC000000
F8000000
F8000000
70000000
30000000
ENDCHAR
STARTCHAR g
ENCODING 103
SWIDTH 472 0
DWIDTH 37 0
BBX 29 51 4 0
BITMAP
3FFFFFC0
7FFFFFC0
FFFFFF80
FFFFFF80
3FFFFF80
87FFFF00
F0000000
FC000000
FC000000
FC000000
FC000000
FC000000
FC000000
FC000000
FC000000
FC000000
FC000000
FC000000
FC000000
FC000000
FC000000
F8000000
F0000000
E000FE00
4001FF00
0003FF80
4003FF90
E001FF38
F000FE78
F80000F8
FC0001F8
FC0001F8
FC0001F8
FC0001F8
FC0001F8
FC0001F8
FC0001F8
FC0001F8
FC0001F8
FC0001F8
FC0001F8
FC0001F8
FC0001F8
FC0001F8
F00001F8
87FFFDF8
3FFFFCF8
FFFFFEF8
7FFFFEF0
7FFFFE70
1FFFFF40
ENDCHAR
STARTCHAR h
ENCODING 104
SWIDTH 472 0
DWIDTH 37 0
BBX 29 50 4 0
BITMAP
10000060
70000070
780000F8
F80000F8
F80001F8
FC0001F8
FC0001F8
FC0001F8
FC0001F8
FC0001F8
FC0001F8
FC0001F8
FC0001F8
FC0001F8
FC0001F8
FC0001F8
FC0001F8
FC0001F8
FC0001F8
FC0001F8
FC0001F8
F80000F8
F3FFFE78
E7FFFF38
4FFFFF90
4FFFFF90
E7FFFF38
F3FFFE78
F80000F8
FC0001F8
FC0001F8
FC0001F8
FC0001F8
FC0001F8
FC0001F8
FC0001F8
FC0001F8
FC0001F8
FC0001F8
FC0001F8
FC0001F8
FC0001F8
FC0001F8
FC0001F8
FC0001F8
FC0001F8
F80000F8
F80000F8
70000070
30000060
ENDCHAR
STARTCHAR i
ENCODING 105
SWIDTH 163 0
DWIDTH 13 0
BBX 6 49 3 1
BITMAP
30
38
7C
7C
FC
FC
FC
FC
FC
FC
FC
FC
FC
FC
FC
FC
FC
FC
FC
FC
FC
7C
3C
1C
08
1C
3C
7C
FC
FC
FC
FC
FC
FC
FC
FC
FC
FC
FC
FC
FC
FC
FC
FC
FC
7C
7C
38
30
ENDCHAR
STARTCHAR j
ENCODING 106
SWIDTH 472 0
DWIDTH 37 0
BBX 29 50 4 0
BITMAP
00000060
00000070
000000F8
000000F8
000001F8
000001F8
000001F8
000001F8
000001F8
000001F8
000001F8
000001F8
000001F8
000001F8
000001F8
000001F8
000001F8
000001F8
000001F8
000001F8
000001F8
000000F8
00000078
00000038
00000010
40000010
E0000038
F0000078
F80000F8
FC0001F8
FC0001F8
FC0001F8
FC0001F8
FC0001F8
FC0001F8
FC0001F8
FC0001F8
FC0001F8
FC0001F8
FC0001F8
FC0001F8
FC0001F8
FC0001F8
F00001F8
87FFFDF8
3FFFFCF8
FFFFFEF8
7FFFFEF0
7FFFFE70
1FFFFF40
ENDCHAR
STARTCHAR k
ENCODING 107
SWIDTH 472 0
DWIDTH 37 0
BBX 29 50 4 0
BITMAP
300003C0
700007F0
F8000FF8
F8001FF0
FC003FE0
FC007FC0
FC00FF80
FC01FF00
FC03FE00
FC07FC00
FC0FF800
FC1FF000
FC3FE000
FC7FC000
FCFF8000
FDFF0000
FDFE0000
FFFC0000
FFF80000
FFF00000
FFE00000
F8000000
F3FFFE00
E7FFFF00
4FFFFF80
4FFFFF90
E7FFFF38
F3FFFE78
F80000F8
FC0001F8
FC0001F8
FC0001F8
FC0001F8
FC0001F8
FC0001F8
FC0001F8
FC0001F8
FC0001F8
FC0001F8
FC0001F8
FC0001F8
FC0001F8
FC0001F8
FC0001F8
FC0001F8
FC0001F8
F80000F8
F80000F8
70000070
30000060
ENDCHAR
STARTCHAR l
ENCODING 108
SWIDTH 472 0
DWIDTH 36 0
BBX 30 50 3 0
BITMAP
30000000
70000000
F8000000
F8000000
FC000000
FC000000
FC000000
FC000000
FC000000
FC000000
FC000000
FC000000
FC000000
FC000000
FC000000
FC000000
FC000000
FC000000
FC000000
FC000000
FC000000
F8000000
F0000000
E0000000
40000000
40000000
E0000000
F0000000
F8000000
FC000000
FC000000
FC000000
FC000000
FC000000
FC000000
FC000000
FC000000
FC000000
FC000000
FC000000
FC000000
FC000000
FC000000
FC000000
FDFFFF80
F9FFFFF0
FBFFFFFC
7BFFFFF8
73FFFFF8
17FFFFF0
ENDCHAR
STARTCHAR m
ENCODING 109
SWIDTH 472 0
DWIDTH 38 0
BBX 30 51 4 0
BITMAP
3FFFFFA0
7FFFFF38
FFFFFF78
FFFFFF7C
3FFFFE7C
87FFFEFC
F00000FC
FC0000FC
FC0FC0FC
FC0FC0FC
FC0FC0FC
FC0FC0FC
FC0FC0FC
FC0FC0FC
FC0FC0FC
FC0FC0FC
FC0FC0FC
FC0FC0FC
FC0FC0FC
FC0FC0FC
FC0FC0FC
F80FC07C
F00FC03C
E00FC01C
40078008
00030000
40000008
E000001C
F000003C
F800007C
FC0000FC
FC0000FC
FC0000FC
FC0000FC
FC0000FC
FC0000FC
FC0000FC
FC0000FC
FC0000FC
FC0000FC
FC0000FC
FC0000FC
FC0000FC
FC0000FC
FC0000FC
FC0000FC
FC0000FC
F800007C
F800007C
70000038
30000030
ENDCHAR
STARTCHAR n
ENCODING 110
SWIDTH 472 0
DWIDTH 37 0
BBX 29 50 4 0
BITMAP
30000060
70000070
F80000F8
F80000F8
FC0001F8
FC0001F8
FFE001F8
FFF001F8
FFF801F8
FFFC01F8
FDFE01F8
FCFF01F8
FC7F81F8
FC3FC1F8
FC1FE1F8
FC0FF1F8
FC07F9F8
FC03FDF8
FC01FDF8
FC00FDF8
FC007DF8
F80000F8
F0000078
E0000038
40000010
40000010
E0000038
F0000078
F80000F8
FC0001F8
FC0001F8
FC0001F8
FC0001F8
FC0001F8
FC0001F8
FC0001F8
FC0001F8
FC0001F8
FC0001F8
FC0001F8
FC0001F8
FC0001F8
FC0001F8
FC0001F8
FC0001F8
FC0001F8
F80000F8
F80000F8
70000070
30000060
ENDCHAR
STARTCHAR o
ENCODING 111
SWIDTH 472 0
DWIDTH 37 0
BBX 29 51 4 0
BITMAP
03FFFC00
07FFFE00
0FFFFF00
0FFFFF00
17FFFE40
3BFFFCE0
7C0001F0
FC0001F8
FC0001F8
FC0001F8
FC0001F8
FC0001F8
FC0001F8
FC0001F8
FC0001F8
FC0001F8
FC0001F8
FC0001F8
FC0001F8
FC0001F8
FC0001F8
F80000F8
F0000078
E0000038
40000010
00000000
40000010
E0000038
F0000078
F80000F8
FC0001F8
FC0001F8
FC0001F8
FC0001F8
FC0001F8
FC0001F8
FC0001F8
FC0001F8
FC0001F8
FC0001F8
FC0001F8
FC0001F8
FC0001F8
FC0001F8
7C0001F0
3FFFFDE0
1FFFFEC0
0FFFFF00
0FFFFF00
07FFFE00
03FFFC00
ENDCHAR
STARTCHAR p
ENCODING 112
SWIDTH 472 0
DWIDTH 37 0
BBX 29 51 4 0
BITMAP
FFFFFE00
FFFFFF00
FFFFFF80
FFFFFF80
3FFFFF40
87FFFEE0
F00001F0
FC0001F8
FC0001F8
FC0001F8
FC0001F8
FC0001F8
FC0001F8
FC0001F8
FC0001F8
FC0001F8
FC0001F8
FC0001F8
FC0001F8
FC0001F8
FC0001F8
F80000F8
F0000078
E3FFFE38
47FFFF10
0FFFFF80
4FFFFF80
E7FFFF00
F3FFFE00
F8000000
FC000000
FC000000
FC000000
FC000000
FC000000
FC000000
FC000000
FC000000
FC000000
FC000000
FC000000
FC000000
FC000000
FC000000
FC000000
FC000000
FC000000
F8000000
F8000000
70000000
30000000
ENDCHAR
STARTCHAR q
ENCODING 113
SWIDTH 481 0
DWIDTH 37 0
BBX 30 52 4 -1
BITMAP
3FFFFF40
7FFFFE70
FFFFFEF0
FFFFFEF8
3FFFFCF8
87FFFDF8
F00001F8
FC0001F8
FC0001F8
FC0001F8
FC0001F8
FC0001F8
FC0001F8
FC0001F8
FC0001F8
FC0001F8
FC0001F8
FC0001F8
FC0001F8
FC0001F8
FC0001F8
F80000F8
F0000078
E0000038
40000010
00000000
40000010
E0000038
F0000078
F80000F8
FC0001F8
FC0001F8
FC0001F8
FC0001F8
FC0001F8
FC0001F8
FC0001F8
FC0001F8
FC0001F8
FC00F9F8
FC00FCF8
FC00FE38
FC00FF18
FC007F88
F0003FC0
87FFDFE0
3FFFEFF0
FFFFF7F8
7FFFFBFC
7FFFF9FC
1FFFFCFC
0000007C
ENDCHAR
STARTCHAR r
ENCODING 114
SWIDTH 472 0
DWIDTH 37 0
BBX 29 51 4 0
BITMAP
3FFFFF40
7FFFFE70
FFFFFEF0
FFFFFEF8
3FFFFCF8
87FFFDF8
F00001F8
FC0001F8
FC0001F8
FC0001F8
FC0001F8
FC0001F8
FC0001F8
FC0001F8
FC0001F8
FC0001F8
FC0001F8
FC0001F8
FC0001F8
FC0001F8
FC0001F8
F80000F8
F0000078
E3FFFE38
47FFFF10
0FFFFF80
4FFFFF80
E7FFFF00
F3FFFE00
F8000000
FFE00000
FFF00000
FFF80000
FFFC0000
FFFE0000
FDFF0000
FCFF8000
FC7FC000
FC3FE000
FC1FF000
FC0FF800
FC07FC00
FC03FE00
FC01FF00
FC00FF80
FC007FC0
FC003FE0
F8001FF0
F8000FF8
700007F0
300003C0
ENDCHAR
STARTCHAR s
ENCODING 115
SWIDTH 472 0
DWIDTH 37 0
BBX 29 51 4 0
BITMAP
3FFFFFE0
7FFFFFF0
FFFFFFF8
FFFFFFF8
3FFFFFE0
87FFFF00
F0000000
FC000000
FC000000
FC000000
FC000000
FC000000
FC000000
FC000000
FC000000
FC000000
FC000000
FC000000
FC000000
FC000000
FC000000
F8000000
F0000000
E3FFFE00
47FFFF00
0FFFFF80
0FFFFF90
07FFFF38
03FFFE78
000000F8
000001F8
000001F8
000001F8
000001F8
000001F8
000001F8
000001F8
000001F8
000001F8
000001F8
000001F8
000001F8
000001F8
000001F8
000001F8
07FFFDF8
3FFFFCF8
FFFFFEF8
FFFFFEF0
7FFFFE70
3FFFFF40
ENDCHAR
STARTCHAR t
ENCODING 116
SWIDTH 471 0
DWIDTH 36 0
BBX 29 51 4 0
BITMAP
3FFFFFE0
7FFFFFF0
FFFFFFF0
FFFFFFF8
7FFFFFE0
0FFFFF00
00000000
00000000
001F8000
001F8000
001F8000
001F8000
001F8000
001F8000
001F8000
001F8000
001F8000
001F8000
001F8000
001F8000
001F8000
001F8000
001F8000
000F0000
00060000
00000000
00000000
00060000
000F0000
001F8000
001F8000
001F8000
001F8000
001F8000
001F8000
001F8000
001F8000
001F8000
001F8000
001F8000
001F8000
001F8000
001F8000
001F8000
001F8000
001F8000
001F8000
000F8000
000F8000
00070000
00060000
ENDCHAR
STARTCHAR u
ENCODING 117
SWIDTH 472 0
DWIDTH 37 0
BBX 29 50 4 0
BITMAP
10000060
70000070
780000F8
F80000F8
F80001F8
FC0001F8
FC0001F8
FC0001F8
FC0001F8
FC0001F8
FC0001F8
FC0001F8
FC0001F8
FC0001F8
FC0001F8
FC0001F8
FC0001F8
FC0001F8
FC0001F8
FC0001F8
FC0001F8
F80000F8
F0000078
E0000038
40000010
40000010
E0000038
F0000078
F80000F8
FC0001F8
FC0001F8
FC0001F8
FC0001F8
FC0001F8
FC0001F8
FC0001F8
FC0001F8
FC0001F8
FC0001F8
FC0001F8
FC0001F8
FC0001F8
FC0001F8
F00001F8
87FFFDF8
3FFFFCF8
FFFFFEF8
7FFFFEF0
7FFFFE70
1FFFFF40
ENDCHAR
STARTCHAR v
ENCODING 118
SWIDTH 472 0
DWIDTH 37 0
BBX 29 50 4 0
BITMAP
30000060
70000070
F80000F8
F80000F8
FC0001F8
FC0001F8
FC0001F8
FC0001F8
FC0001F8
FC0001F8
FC0001F8
FC0001F8
FC0001F8
FC0001F8
FC0001F8
FC0001F8
FC0001F8
FC0001F8
FC0001F8
FC0001F8
FC0001F8
F80000F8
F0000078
E0000038
40000010
00000000
40000010
E0000038
F0000078
F80000F8
FC0001F8
FE0003F8
7E0003F0
7F0007F0
3F800FE0
1FC01FC0
0FC01F80
0FE03F80
07F07F00
03F07E00
01F8FC00
01FDFC00
00FDF800
007DF000
003DE000
003DE000
001DC000
000D8000
00050000
00050000
ENDCHAR
STARTCHAR w
ENCODING 119
SWIDTH 472 0
DWIDTH 38 0
BBX 30 50 4 0
BITMAP
30000030
70000038
F800007C
F800007C
FC0000FC
FC0000FC
FC0000FC
FC0000FC
FC0000FC
FC0000FC
FC0000FC
FC0000FC
FC0000FC
FC0000FC
FC0000FC
FC0000FC
FC0000FC
FC0000FC
FC0000FC
FC0000FC
FC0000FC
F800007C
F000003C
E000001C
40000008
40078008
E00FC01C
F00FC03C
F80FC07C
FC0FC0FC
FC0FC0FC
FC0FC0FC
FC0FC0FC
FC0FC0FC
FC0FC0FC
FC0FC0FC
FC0FC0FC
FC0FC0FC
FC0FC0FC
FC0FC0FC
FC0FC0FC
FC0FC0FC
FC0FC0FC
F00000FC
87FFFEFC
3FFFFE7C
FFFFFF7C
FFFFFF78
7FFFFF38
3FFFFFA0
ENDCHAR
STARTCHAR x
ENCODING 120
SWIDTH 472 0
DWIDTH 36 0
BBX 30 50 3 0
BITMAP
1C0000E0
7C0000F8
FE0001FC
FE0001FC
7F0003F8
7F0003F8
3F8007F0
3F8007F0
1FC00FE0
1FC00FE0
0FE01FC0
0FE01FC0
07F03F80
07F03F80
03F87F00
03F87F00
01FCFE00
01FCFE00
00FCFC00
00FCFC00
007CF800
007CF800
003CF000
003CF000
001CE000
001CE000
003CF000
003CF000
007CF800
007CF800
00FCFC00
00FCFC00
01FCFE00
01FCFE00
03F87F00
03F87F00
07F03F80
07F03F80
0FE01FC0
0FE01FC0
1FC00FE0
1FC00FE0
3F8007F0
3F8007F0
7F0003F8
7F0003F8
FE0001FC
FE0001FC
7C0000F8
1C0000E0
ENDCHAR
STARTCHAR y
ENCODING 121
SWIDTH 472 0
DWIDTH 37 0
BBX 29 50 4 0
BITMAP
00000060
00000070
000000F8
E00000F8
FC0001F8
FC0001F8
FC0001F8
FC0001F8
FC0001F8
FC0001F8
FC0001F8
FC0001F8
FC0001F8
FC0001F8
FC0001F8
FC0001F8
FC0001F8
FC0001F8
FC0001F8
FC0001F8
F80001F8
F00000F8
E3FFFE78
47FFFF38
0FFFFF90
0FFFFF90
07FFFF38
03FFFE78
000000F8
000001F8
000001F8
000001F8
000001F8
000001F8
000001F8
000001F8
000001F8
000001F8
000001F8
000001F8
000001F8
000001F8
000001F8
000001F8
07FFFDF8
3FFFFCF8
FFFFFEF8
FFFFFEF0
7FFFFE70
3FFFFF40
ENDCHAR
STARTCHAR z
ENCODING 122
SWIDTH 472 0
DWIDTH 36 0
BBX 29 51 4 0
BITMAP
3FFFFDC0
7FFFF9F0
FFFFFBF8
FFFFF3F8
7FFFF7F0
0FFFE7F0
00000FE0
00000FE0
00001FC0
00001FC0
00001F80
00003F80
00003F00
00007F00
00007E00
0000FE00
0000FC00
0001FC00
0001F800
0001F800
0003F000
0003F000
0003E000
0003E000
0003C000
00000000
001E0000
003E0000
003E0000
007E0000
007E0000
00FE0000
00FC0000
01FC0000
01F80000
03F80000
03F00000
07F00000
0FE00000
0FE00000
1FC00000
1FC00000
3F800000
3F800000
7F000000
7F7FFF00
FE7FFF80
FEFFFF80
FCFFFF80
FDFFFFC0
39FFFFC0
ENDCHAR
STARTCHAR braceleft
ENCODING 123
SWIDTH 390 0
DWIDTH 30 0
BBX 23 51 4 0
BITMAP
003FFC
007FFE
00FFFC
00FFF8
003FF0
008FE0
00F000
00FC00
00FC00
00FC00
00FC00
00FC00
00FC00
00FC00
00FC00
00FC00
00FC00
00FC00
00FC00
00FC00
00FC00
007C00
003C00
3F1C00
7F8800
FFC000
FFC800
7F9C00
3F3C00
007C00
00FC00
00FC00
00FC00
00FC00
00FC00
00FC00
00FC00
00FC00
00FC00
00FC00
00FC00
00FC00
00FC00
00FC00
00F000
008FE0
003FF0
00FFF8
00FFFC
007FFE
003FFC
ENDCHAR
STARTCHAR bar
ENCODING 124
SWIDTH 163 0
DWIDTH 13 0
BBX 6 50 3 0
BITMAP
30
38
7C
7C
FC
FC
FC
FC
FC
FC
FC
FC
FC
FC
FC
FC
FC
FC
FC
FC
FC
FC
FC
FC
FC
FC
FC
FC
FC
FC
FC
FC
FC
FC
FC
FC
FC
FC
FC
FC
FC
FC
FC
FC
FC
FC
7C
7C
38
30
ENDCHAR
STARTCHAR braceright
ENCODING 125
SWIDTH 390 0
DWIDTH 30 0
BBX 23 51 3 0
BITMAP
7FF800
FFFC00
7FFE00
3FFE00
1FF800
0FE200
001E00
007E00
007E00
007E00
007E00
007E00
007E00
007E00
007E00
007E00
007E00
007E00
007E00
007E00
007E00
007C00
007800
0071F8
0023FC
0003FE
0023FE
0073FC
0079F8
007C00
007E00
007E00
007E00
007E00
007E00
007E00
007E00
007E00
007E00
007E00
007E00
007E00
007E00
007E00
001E00
0FE200
1FF800
3FFE00
7FFE00
FFFC00
7FF800
ENDCHAR
STARTCHAR asciitilde
ENCODING 126
SWIDTH 490 0
DWIDTH 38 0
BBX 30 15 4 23
BITMAP
01E00000
03F00000
07F80000
03F80000
3DF780F0
7EEFC1F8
FE1FE3FC
FE1FE3FC
7E0FC1F8
3C079CF0
00003E00
00007F00
00007F00
00003E00
00001C00
ENDCHAR
STARTCHAR copyright
ENCODING 169
SWIDTH 527 0
DWIDTH 41 0
BBX 34 51 3 0
BITMAP
3FFFFFFA00
7FFFFFF380
7FFFFFF780
FFFFFFF7C0
3FFFFFE7C0
8FFFFFEFC0
F000000FC0
FC00000FC0
FC00000FC0
FC00000FC0
FC00000FC0
FC00000FC0
FC0FFF8FC0
FC3FFF8FC0
FC3FFF8FC0
FC7FFF0FC0
FC1FFF0FC0
FC43FF0FC0
FC78000FC0
FC7E000FC0
FC7E000FC0
FC7E000FC0
FC7E000FC0
FC7E000FC0
FC7E000FC0
FC7E000FC0
FC7E000FC0
FC7E000FC0
FC7E000FC0
FC7E000FC0
FC7E000FC0
FC7E000FC0
FC7E000FC0
FC7E000FC0
FC7EF80FC0
FC7EFF0FC0
FC7DFFCFC0
FC7DFFCFC0
FC3DFF8FC0
FC1BFE0FC0
FC00000FC0
FC00000FC0
FC00000FC0
FC00000FC0
F000000FC0
87FFFFEFC0
3FFFFFE7C0
FFFFFFF7C0
7FFFFFF780
7FFFFFF380
1FFFFFFA00
ENDCHAR
STARTCHAR endash
ENCODING 8211
SWIDTH 490 0
DWIDTH 38 0
BBX 30 6 4 22
BITMAP
3FFFFFF0
7FFFFFF8
FFFFFFFC
FFFFFFFC
7FFFFFF8
3FFFFFF0
ENDCHAR
STARTCHAR emdash
ENCODING 8212
SWIDTH 527 0
DWIDTH 41 0
BBX 33 6 4 22
BITMAP
3FFFFFFE00
7FFFFFFF00
FFFFFFFF80
FFFFFFFF80
7FFFFFFF00
3FFFFFFE00
ENDCHAR
STARTCHAR quoteleft
ENCODING 8216
SWIDTH 163 0
DWIDTH 13 0
BBX 6 14 3 36
BITMAP
30
78
FC
FC
FC
FC
FC
FC
FC
FC
FC
FC
FC
FC
ENDCHAR
STARTCHAR quoteright
ENCODING 8217
SWIDTH 163 0
DWIDTH 13 0
BBX 6 14 3 36
BITMAP
FC
FC
FC
FC
FC
FC
FC
FC
FC
FC
FC
FC
78
30
ENDCHAR
STARTCHAR quotedblleft
ENCODING 8220
SWIDTH 309 0
DWIDTH 25 0
BBX 17 14 4 36
BITMAP
300600
780F00
FC1F80
FC1F80
FC1F80
FC1F80
FC1F80
FC1F80
FC1F80
FC1F80
FC1F80
FC1F80
FC1F80
FC1F80
ENDCHAR
STARTCHAR quotedblright
ENCODING 8221
SWIDTH 310 0
DWIDTH 25 0
BBX 17 14 4 36
BITMAP
FC1F80
FC1F80
FC1F80
FC1F80
FC1F80
FC1F80
FC1F80
FC1F80
FC1F80
FC1F80
FC1F80
FC1F80
780F00
300600
ENDCHAR
STARTCHAR bullet
ENCODING 8226
SWIDTH 354 0
DWIDTH 27 0
BBX 21 21 3 15
BITMAP
00FC00
07FF00
0FFF80
1FFFC0
3FFFE0
3FFFF0
7FFFF0
7FFFF0
7FFFF8
7FFFF8
FFFFF8
7FFFF8
7FFFF8
7FFFF0
7FFFF0
3FFFF0
3FFFE0
1FFFC0
0FFF80
07FF00
01FC00
ENDCHAR
STARTCHAR perthousand
ENCODING 8240
SWIDTH 536 0
DWIDTH 42 0
BBX 34 50 4 0
BITMAP
3F60000000
7F70000000
FE78001C00
FEF8003E00
1EF8007F00
C5F800FF00
F1F801FE00
FDF803FC00
FDF807F800
FDF80FF000
FC781FE000
F9883FC000
FBF07F8000
FBF8FF0000
F3F8FE0000
77F0FC0000
17CFF80000
001FF00000
003FE00000
003F000000
007F000000
00FF000000
01FE000000
03FC000000
07F8000000
0FF0000000
1FE0000000
3FC0000000
7F80000000
FF00000000
FE00000000
7C00000000
3800000000
01FB01FB00
03FB83FB80
07F3C7F3C0
07F7C7F7C0
01F7C1F7C0
046FC66FC0
078FC78FC0
07EFC7EFC0
07EFC7EFC0
07EFC7EFC0
07E3C7E3C0
07E847E840
07DE07DE00
07DFC7DFC0
079FC79FC0
03BF83BF80
01BF01BF00
ENDCHAR
STARTCHAR .notdef
ENCODING -1
SWIDTH 527 0
DWIDTH 42 0
BBX 34 51 4 0
BITMAP
3FFFFFFA00
7FFFFFF380
FFFFFFF780
FFFFFFF7C0
3FFFFFE7C0
87FFFFEFC0
F000000FC0
FC00000FC0
FC00000FC0
FC00000FC0
FC00000FC0
FC00000FC0
FC00000FC0
FC00000FC0
FC00000FC0
FC00000FC0
FC00000FC0
FC00000FC0
FC00000FC0
FC00000FC0
FC00000FC0
FC00000FC0
FC00000FC0
FC00000FC0
FC00000FC0
FC00000FC0
FC00000FC0
FC00000FC0
FC00000FC0
FC00000FC0
FC00000FC0
FC00000FC0
FC00000FC0
FC00000FC0
FC00000FC0
FC00000FC0
FC00000FC0
FC00000FC0
FC00000FC0
FC00000FC0
FC00000FC0
FC00000FC0
FC00000FC0
FC00000FC0
F000000FC0
87FFFFEFC0
3FFFFFE7C0
FFFFFFF7C0
7FFFFFF780
7FFFFFF380
1FFFFFFA00
ENDCHAR
STARTCHAR NULL
ENCODING -1
SWIDTH 454 0
DWIDTH 35 0
BBX 1 1 0 0
BITMAP
00
ENDCHAR
STARTCHAR nonmarkingreturn
ENCODING -1
SWIDTH 454 0
DWIDTH 35 0
BBX 1 1 0 0
BITMAP
00
ENDCHAR
ENDFONT
